<svg xmlns="http://www.w3.org/2000/svg" viewBox="0 0 512 512"><g class="" style="" transform="translate(0,0)">
<path d="M165.864 359.013c-8.255-8.255-3.952-5.928-23.864-11.257-9.034-2.423-16.976-7.077-24.159-12.654L74.74 440.78c-4.171 10.231 3.62 21.346 14.658 20.929l50.056-1.909L173.882 496.165c7.6 8.018 20.938 5.52 25.108-4.712l49.448-121.239c-10.298 5.738-21.726 9.101-33.544 9.101-18.525 0-35.929-7.21-49.03-20.302zM437.26 440.78l-43.101-105.678c-7.182 5.586-15.124 10.231-24.159 12.654-20.017 5.358-15.627 3.021-23.864 11.257-13.101 13.091-30.514 20.302-49.039 20.302-11.818 0-23.247-3.373-33.544-9.101L313 491.453c4.171 10.231 17.518 12.73 25.108 4.712l34.438-36.366 50.055 1.909c11.039.418 18.829-10.707 14.659-20.928zM323.45 337.515c14.516-14.772 16.178-13.499 36.851-19.133 13.195-3.601 23.512-14.098 27.046-27.531 7.106-26.98 5.263-23.722 24.652-43.463 9.662-9.832 13.433-24.168 9.899-37.601-7.097-26.961-7.106-23.199 0-50.189 3.534-13.433-.238-27.768-9.899-37.601-19.389-19.741-17.546-16.492-24.652-43.462-3.534-13.433-13.851-23.931-27.047-27.531-26.486-7.23-23.294-5.339-42.702-25.089-9.661-9.832-23.75-13.68-36.945-10.079-26.476 7.22-22.781 7.229-49.305 0-13.196-3.6-27.284.238-36.946 10.08-19.389 19.741-16.197 17.86-42.693 25.09-13.195 3.6-23.512 14.098-27.046 27.531-7.097 26.97-5.263 23.721-24.653 43.462-9.661 9.832-13.442 24.168-9.899 37.601 7.096 26.942 7.106 23.18 0 50.179-3.534 13.433.237 27.768 9.899 37.611 19.39 19.741 17.546 16.483 24.653 43.462 3.534 13.433 13.851 23.93 27.046 27.531C172.97 324.177 174.557 323.265 188.55 337.515c12.568 12.797 32.148 15.086 47.253 5.529a37.692 37.692 0 0 1 40.404 0c15.096 9.557 34.675 7.267 47.243-5.529zM166.377 181.677c0-50.378 40.128-91.219 89.623-91.219s89.623 40.841 89.623 91.219-40.128 91.219-89.623 91.219-89.623-40.84-89.623-91.219z"/>
</g></svg>