<svg xmlns="http://www.w3.org/2000/svg" viewBox="0 0 512 512"><g class="" style="" transform="translate(0,0)">
<path d="M180.057 444.428c.009 5.976 1.776 11.827 5.092 16.805l16.235 24.406a30.39 30.39 0 0 0 25.308 13.566h58.625a30.39 30.39 0 0 0 25.308-13.566l16.236-24.406a30.39 30.39 0 0 0 5.092-16.805l.038-36.433H180.01l.048 36.433zM88.8 179.995c0 42.152 15.627 80.608 41.382 109.991 15.694 17.908 40.242 55.319 49.6 86.878.038 .247.066 .494.104 .741h152.228c.038-.247.067-.484.105-.741 9.358-31.559 33.906-68.97 49.599-86.877C407.573 260.603 423.2 222.147 423.2 179.995 423.2 87.475 348.065 12.51 255.478 12.795 158.568 13.09 88.8 91.617 88.8 179.995zm167.2-76c-41.905 0-76 34.096-76 76 0 8.398-6.802 15.2-15.2 15.2s-15.2-6.802-15.2-15.2c0-58.672 47.728-106.4 106.4-106.4 8.398 0 15.2 6.802 15.2 15.2s-6.802 15.2-15.2 15.2z"/>
</g></svg>