<svg xmlns="http://www.w3.org/2000/svg" viewBox="0 0 48 48"><g class="" style="" transform="translate(0,0)">
<path d="M21.69.9V5.682C13.328 6.744 6.744 13.328 5.682 21.69H.9V26.31H5.682C6.744 34.672 13.328 41.256 21.69 42.318V47.1H26.31V42.318C34.672 41.256 41.256 34.672 42.318 26.31H47.1V21.69H42.318C41.256 13.328 34.672 6.744 26.31 5.682V.9M21.69 10.325V14.76H26.31V10.348C32.085 11.295 36.705 15.915 37.675 21.69H33.24V26.31H37.652C36.705 32.085 32.085 36.705 26.31 37.675V33.24H21.69V37.652C15.915 36.705 11.295 32.085 10.325 26.31H14.76V21.69H10.348C11.295 15.915 15.915 11.295 21.69 10.325M24 21.69A2.31 2.31 0 0 0 21.69 24 2.31 2.31 0 0 0 24 26.31 2.31 2.31 0 0 0 26.31 24 2.31 2.31 0 0 0 24 21.69Z"/>
</g></svg>