<svg xmlns="http://www.w3.org/2000/svg" viewBox="0 0 512 512"><g class="" style="" transform="translate(0,0)">
<path d="M255.996 364c-56.888 0-102.937-44.033-107.175-99.832L70.146 203.365c-10.343 12.975-19.86 26.692-27.54 41.692a24.263 24.263 0 0 0 0 21.893C83.279 346.308 163.799 400 255.996 400c20.182 0 39.653-3 58.417-7.845L275.496 362.043a108.098 108.098 0 0 1-19.5 1.957zm235.365 43.575-82.912-64.08a248.438 248.438 0 0 0 60.938-76.553 24.263 24.263 0 0 0 0-21.892C428.714 165.693 348.194 112 255.996 112a231.112 231.112 0 0 0-110.49 28.275L50.091 66.528A12 12 0 0 0 33.246 68.635L18.524 87.588A12 12 0 0 0 20.631 104.425l441.27 341.047a12 12 0 0 0 16.845-2.107l14.73-18.953a12 12 0 0 0-2.115-16.837zm-137.79-106.5-29.475-22.785A71.063 71.063 0 0 0 327.996 256a71.07 71.07 0 0 0-90.982-69.157A35.738 35.738 0 0 1 243.996 208a34.98 34.98 0 0 1-1.155 7.5l-55.208-42.668A106.733 106.733 0 0 1 255.996 148a107.94 107.94 0 0 1 108 108c0 16.222-3.968 31.342-10.425 45.082z"/>
</g></svg>