<svg xmlns="http://www.w3.org/2000/svg" viewBox="0 0 512 512"><g class="" style="" transform="translate(0,0)">
<path d="M154.272 179.7h25.432V77.972h-25.432c-28.094 0-50.864 22.77-50.864 50.864s22.77 50.864 50.864 50.864zM1.68 383.156c0 28.094 22.77 50.864 50.864 50.864h25.432V332.292H52.544c-28.094 0-50.864 22.77-50.864 50.864zm268.196-101.728c-27.745 0-60.528 10.427-83.234 25.432-19.702 13.018-35.382 25.432-83.234 25.432v101.728l45.722 12.692c20.83 5.786 42.13 10.427 63.826 11.961 25.98 1.836 52.136.532 77.552-4.927C377.517 435.053 408.592 393.663 408.592 357.724c0-50.864-66.902-76.296-138.716-76.296zM392.236 58.254C366.82 52.794 340.665 51.483 314.684 53.327c-21.697 1.534-42.996 6.175-63.826 11.953L205.136 77.972v101.728c47.844 0 63.532 12.414 83.234 25.432 22.706 15.005 55.489 25.432 83.234 25.432C443.418 230.564 510.32 205.132 510.32 154.268c0-35.939-31.075-77.329-118.084-96.014z"/>
</g></svg>