<svg xmlns="http://www.w3.org/2000/svg" viewBox="0 0 512 512"><g class="" style="" transform="translate(0,0)"><path d="M256 49.774c-21.335 0-63.148 104.785-80.408 117.327-17.261 12.54-129.84 19.926-136.433 40.217-6.593 20.29 80.144 92.438 86.737 112.729 6.593 20.292-21.172 129.642-3.91 142.182 17.262 12.54 112.68-47.656 134.015-47.656 21.335 0 116.755 60.197 134.015 47.656 17.261-12.54-10.503-121.891-3.91-142.182 6.593-20.292 93.33-92.439 86.737-112.73-6.593-20.292-119.172-27.677-136.432-40.218-17.26-12.54-59.073-117.327-80.408-117.327z" fill="#000000" fill-opacity="0" stroke="currentColor" stroke-opacity="1" stroke-width="50"></path></g></svg>