<svg xmlns="http://www.w3.org/2000/svg" viewBox="0 0 512 512"><g class="" style="" transform="translate(0,0)">
<path d="M25.6 115.2v281.6c0 21.2 17.2 38.4 38.4 38.4h38.4V76.8H64C42.8 76.8 25.6 94 25.6 115.2zm102.4 320h256V76.8H128v358.4zm51.2-198.4c0-3.52 2.88-6.4 6.4-6.4h44.8v-44.8c0-3.52 2.88-6.4 6.4-6.4h38.4c3.52 0 6.4 2.88 6.4 6.4v44.8h44.8c3.52 0 6.4 2.88 6.4 6.4v38.4c0 3.52-2.88 6.4-6.4 6.4h-44.8v44.8c0 3.52-2.88 6.4-6.4 6.4h-38.4c-3.52 0-6.4-2.88-6.4-6.4v-44.8h-44.8c-3.52 0-6.4-2.88-6.4-6.4v-38.4zM448 76.8h-38.4v358.4h38.4c21.2 0 38.4-17.2 38.4-38.4V115.2c0-21.2-17.2-38.4-38.4-38.4z"/>
</g></svg>