<svg xmlns="http://www.w3.org/2000/svg" viewBox="0 0 128 128"><g class="" style="" transform="translate(0,0)">
<path d="M64 .64c-34.848 0-63.36 28.512-63.36 63.36s28.512 63.36 63.36 63.36 63.36-28.512 63.36-63.36-28.512-63.36-63.36-63.36zm0 15.84c26.294 0 47.52 21.226 47.52 47.52s-21.226 47.52-47.52 47.52-47.52-21.226-47.52-47.52 21.226-47.52 47.52-47.52zm0 15.84c-17.424 0-31.68 14.256-31.68 31.68s14.256 31.68 31.68 31.68 31.68-14.256 31.68-31.68-14.256-31.68-31.68-31.68zm0 15.84c8.87 0 15.84 6.97 15.84 15.84s-6.97 15.84-15.84 15.84-15.84-6.97-15.84-15.84 6.97-15.84 15.84-15.84z"/>
</g></svg>