<svg xmlns="http://www.w3.org/2000/svg" viewBox="0 0 512 512"><g class="" style="" transform="translate(0,0)">
<path d="M485.488 427.344l-65.91-263.647c-3.43-13.709-14.837-23.212-27.86-23.212h-54.376c3.222-9.07 5.307-18.7 5.307-28.88 0-47.851-38.789-86.64-86.64-86.64s-86.64 38.789-86.64 86.64c0 10.18 2.076 19.81 5.307 28.88h-54.376c-13.023 0-24.44 9.512-27.86 23.212L26.512 427.344C18.994 457.406 39.743 487.035 68.307 487.035h375.395c28.555 0 49.304-29.629 41.786-59.691zM256 140.475c-15.92 0-28.88-12.96-28.88-28.88s12.96-28.88 28.88-28.88 28.88 12.96 28.88 28.88-12.96 28.88-28.88 28.88z"/>
</g></svg>